<svg width="283" height="64" viewBox="0 0 283 64" fill="none" 
    xmlns="http://www.w3.org/2000/svg">
<path d="M22.9 2.4C25.2333 2.4 26.6 3.03333 27 4.3C27.2 4.83333 27.3 5.76667 27.3 7.1C27.3 8.43333 26.8667 10.1 26 12.1C25.1333 14.0667 24.0833 16.0167 22.85 17.95C21.65 19.8833 20.4333 21.8333 19.2 23.8C16.2667 28.5667 14.8 32.4 14.8 35.3C14.8 36.0333 14.7667 36.5833 14.7 36.95C14.6333 37.2833 14.4667 37.65 14.2 38.05C13.9333 38.4167 13.4833 38.6667 12.85 38.8C12.25 38.9333 11.4167 39 10.35 39C9.28333 39 8.43333 38.9333 7.8 38.8C7.2 38.6667 6.76667 38.4 6.5 38C6.23333 37.6 6.06667 37.2333 6 36.9C5.96667 36.5333 5.95 35.9667 5.95 35.2C5.95 33.0333 6.31667 30.8167 7.05 28.55C7.78333 26.25 8.66667 24.2 9.7 22.4C10.7333 20.6 11.7667 18.95 12.8 17.45C13.8333 15.9167 14.7167 14.6167 15.45 13.55C16.1833 12.45 16.55 11.6833 16.55 11.25H5.15C3.81667 11.25 2.85 11.0833 2.25 10.75C1.65 10.4167 1.25 9.93333 1.05 9.3C0.85 8.66666 0.75 7.83333 0.75 6.8C0.75 5.76667 0.85 4.93333 1.05 4.3C1.25 3.66666 1.56667 3.23333 2 3C2.7 2.6 3.66667 2.4 4.9 2.4H22.9ZM35.8273 2.25L43.4273 2.3H48.1273C48.9273 2.3 49.5107 2.33333 49.8773 2.4C50.244 2.43333 50.6773 2.58333 51.1773 2.85C52.0773 3.31666 52.5273 4.65 52.5273 6.85C52.5273 8.85 52.1107 10.0667 51.2773 10.5C50.8107 10.7667 50.394 10.9333 50.0273 11C49.694 11.0333 49.1607 11.05 48.4273 11.05H39.6773C39.6107 11.45 39.444 12.7167 39.1773 14.85C39.544 14.7833 40.1273 14.75 40.9273 14.75C44.094 14.75 46.944 15.95 49.4773 18.35C52.0107 20.7167 53.2773 23.6333 53.2773 27.1C53.2773 30.5333 52.0773 33.5 49.6773 36C47.2773 38.4667 44.294 39.7 40.7273 39.7C37.6273 39.7 34.8273 38.9167 32.3273 37.35C31.7607 36.9833 31.344 36.6667 31.0773 36.4L30.6773 36.05C29.4107 34.95 28.7773 33.95 28.7773 33.05C28.7773 32.15 29.394 31.0667 30.6273 29.8C31.6273 28.7 32.594 28.15 33.5273 28.15C34.4607 28.15 35.5773 28.6833 36.8773 29.75C37.4773 30.45 38.5107 30.8 39.9773 30.8C41.4773 30.8 42.5773 30.4833 43.2773 29.85C44.0107 29.2167 44.3773 28.35 44.3773 27.25C44.3773 26.1167 43.9773 25.2333 43.1773 24.6C42.4107 23.9333 41.5273 23.6 40.5273 23.6C39.5273 23.6 38.7273 23.9 38.1273 24.5C37.2273 25.2667 36.3107 25.65 35.3773 25.65C34.4773 25.65 33.4273 25.3333 32.2273 24.7C31.0607 24.0667 30.294 23.5667 29.9273 23.2C29.5607 22.8 29.3773 22.3833 29.3773 21.95C29.3773 21.5167 29.7107 18.8333 30.3773 13.9C31.044 8.96666 31.394 6.4 31.4273 6.2C31.4607 6 31.5773 5.65 31.7773 5.15C31.9773 4.65 32.2107 4.2 32.4773 3.8C32.7773 3.4 33.2107 3.05 33.7773 2.75C34.3773 2.41667 35.0607 2.25 35.8273 2.25ZM69.1875 4.65C69.1875 3.88333 69.2042 3.31667 69.2375 2.95C69.3042 2.55 69.4542 2.1 69.6875 1.6C70.1542 0.699998 71.4542 0.249998 73.5875 0.249998C75.6208 0.249998 76.8875 0.699998 77.3875 1.6C77.6542 2.1 77.8042 2.55 77.8375 2.95C77.9042 3.35 77.9375 3.93333 77.9375 4.7V27.85C77.9375 29.05 78.0375 29.8167 78.2375 30.15C78.4375 30.45 78.8708 30.6 79.5375 30.6C80.2375 30.6 80.7042 30.6333 80.9375 30.7C81.1708 30.7333 81.4542 30.8667 81.7875 31.1C82.4542 31.5333 82.7875 32.7167 82.7875 34.65C82.7875 36.75 82.4542 38.0333 81.7875 38.5C80.9208 39.1 78.8542 39.2 75.5875 38.8C73.0208 38.4667 71.3542 37.6167 70.5875 36.25C69.6542 34.6167 69.1875 32.0167 69.1875 28.45V4.65ZM84.7949 25.85C84.7949 21.85 86.1949 18.55 88.9949 15.95C91.7949 13.35 94.9949 12.05 98.5949 12.05C102.195 12.05 105.378 13.35 108.145 15.95C110.912 18.5167 112.295 21.8 112.295 25.8C112.295 28.5667 111.578 31.0333 110.145 33.2C108.712 35.3333 106.962 36.9167 104.895 37.95C102.862 38.95 100.745 39.45 98.5449 39.45C96.3449 39.45 94.2116 38.9167 92.1449 37.85C90.0783 36.75 88.3283 35.15 86.8949 33.05C85.4949 30.9167 84.7949 28.5167 84.7949 25.85ZM95.2449 29.45C96.3116 30.25 97.3949 30.65 98.4949 30.65C99.5949 30.65 100.695 30.2333 101.795 29.4C102.895 28.5667 103.445 27.3333 103.445 25.7C103.445 24.0667 102.928 22.85 101.895 22.05C100.862 21.25 99.7449 20.85 98.5449 20.85C97.3449 20.85 96.2283 21.2667 95.1949 22.1C94.1616 22.9333 93.6449 24.1667 93.6449 25.8C93.6449 27.4 94.1783 28.6167 95.2449 29.45ZM148.075 21.5L144.825 21.3V28.2C144.825 29.1 144.959 29.75 145.225 30.15C145.525 30.55 146.059 30.75 146.825 30.75C147.625 30.75 148.225 30.7833 148.625 30.85C149.059 30.8833 149.492 31.0333 149.925 31.3C150.725 31.7333 151.125 32.85 151.125 34.65C151.125 36.75 150.659 38.0333 149.725 38.5C149.225 38.7333 148.775 38.8833 148.375 38.95C148.009 38.9833 147.459 39 146.725 39C143.392 39 140.792 38.1333 138.925 36.4C137.059 34.6667 136.125 32.1 136.125 28.7V21.3C134.525 21.4333 133.192 21.5 132.125 21.5L127.575 21.3V28.2C127.575 29.1 127.709 29.75 127.975 30.15C128.275 30.55 128.809 30.75 129.575 30.75C130.375 30.75 130.975 30.7833 131.375 30.85C131.809 30.8833 132.259 31.0333 132.725 31.3C133.492 31.7333 133.875 32.85 133.875 34.65C133.875 36.75 133.409 38.0333 132.475 38.5C131.975 38.7333 131.525 38.8833 131.125 38.95C130.759 38.9833 130.209 39 129.475 39C126.142 39 123.542 38.1333 121.675 36.4C119.809 34.6667 118.875 32.1 118.875 28.7V21.3C118.209 21.4 117.509 21.45 116.775 21.45C116.075 21.45 115.475 21.1667 114.975 20.6C114.509 20.0333 114.275 19.0667 114.275 17.7C114.275 16.3333 114.359 15.35 114.525 14.75C114.692 14.1167 114.925 13.6667 115.225 13.4C115.759 12.9667 116.425 12.75 117.225 12.75L118.875 12.95V7.8C118.875 7.03333 118.892 6.46667 118.925 6.1C118.992 5.73333 119.159 5.33333 119.425 4.9C119.859 4.06667 121.142 3.65 123.275 3.65C125.542 3.65 126.892 4.26667 127.325 5.5C127.492 6.03333 127.575 6.88333 127.575 8.05V12.8C129.142 12.7667 130.625 12.75 132.025 12.75L136.125 12.8V7.8C136.125 7.03333 136.142 6.46667 136.175 6.1C136.242 5.73333 136.392 5.33333 136.625 4.9C137.092 4.06667 138.392 3.65 140.525 3.65C142.792 3.65 144.125 4.26667 144.525 5.5C144.725 6.03333 144.825 6.88333 144.825 8.05V12.95C146.292 12.8167 147.392 12.75 148.125 12.75C148.892 12.75 149.459 12.7833 149.825 12.85C150.225 12.8833 150.659 13.0333 151.125 13.3C152.025 13.7333 152.475 15.0167 152.475 17.15C152.475 19.25 152.025 20.5333 151.125 21C150.625 21.2333 150.175 21.3833 149.775 21.45C149.409 21.4833 148.842 21.5 148.075 21.5ZM154.473 25.85C154.473 21.85 155.873 18.55 158.673 15.95C161.473 13.35 164.673 12.05 168.273 12.05C171.873 12.05 175.056 13.35 177.823 15.95C180.589 18.5167 181.973 21.8 181.973 25.8C181.973 28.5667 181.256 31.0333 179.823 33.2C178.389 35.3333 176.639 36.9167 174.573 37.95C172.539 38.95 170.423 39.45 168.223 39.45C166.023 39.45 163.889 38.9167 161.823 37.85C159.756 36.75 158.006 35.15 156.573 33.05C155.173 30.9167 154.473 28.5167 154.473 25.85ZM164.923 29.45C165.989 30.25 167.073 30.65 168.173 30.65C169.273 30.65 170.373 30.2333 171.473 29.4C172.573 28.5667 173.123 27.3333 173.123 25.7C173.123 24.0667 172.606 22.85 171.573 22.05C170.539 21.25 169.423 20.85 168.223 20.85C167.023 20.85 165.906 21.2667 164.873 22.1C163.839 22.9333 163.323 24.1667 163.323 25.8C163.323 27.4 163.856 28.6167 164.923 29.45Z" fill="black"/>
</svg>
